<svg width="70" height="71" viewBox="0 0 70 71" fill="none" xmlns="http://www.w3.org/2000/svg">
<rect y="70.3611" width="5.77324" height="5.77324" rx="2.88662" transform="rotate(-90 0 70.3611)" fill="#0C242B"/>
<rect x="32.1133" y="70.3611" width="5.77324" height="5.77324" rx="2.88662" transform="rotate(-90 32.1133 70.3611)" fill="#0C242B"/>
<rect x="16.0566" y="70.3611" width="5.77324" height="5.77324" rx="2.88662" transform="rotate(-90 16.0566 70.3611)" fill="#0C242B"/>
<rect x="48.1701" y="70.3611" width="5.77324" height="5.77324" rx="2.88662" transform="rotate(-90 48.1701 70.3611)" fill="#0C242B"/>
<rect x="64.2267" y="70.3611" width="5.77324" height="5.77324" rx="2.88662" transform="rotate(-90 64.2267 70.3611)" fill="#0C242B"/>
<rect y="54.3043" width="5.77324" height="5.77324" rx="2.88662" transform="rotate(-90 0 54.3043)" fill="#0C242B"/>
<rect x="32.1133" y="54.3043" width="5.77324" height="5.77324" rx="2.88662" transform="rotate(-90 32.1133 54.3043)" fill="#0C242B"/>
<rect x="16.0566" y="54.3043" width="5.77324" height="5.77324" rx="2.88662" transform="rotate(-90 16.0566 54.3043)" fill="#0C242B"/>
<rect x="48.1701" y="54.3043" width="5.77324" height="5.77324" rx="2.88662" transform="rotate(-90 48.1701 54.3043)" fill="#0C242B"/>
<rect x="64.2267" y="54.3043" width="5.77324" height="5.77324" rx="2.88662" transform="rotate(-90 64.2267 54.3043)" fill="#0C242B"/>
<rect y="38.2477" width="5.77324" height="5.77324" rx="2.88662" transform="rotate(-90 0 38.2477)" fill="#0C242B"/>
<rect x="32.1133" y="38.2477" width="5.77324" height="5.77324" rx="2.88662" transform="rotate(-90 32.1133 38.2477)" fill="#0C242B"/>
<rect x="16.0566" y="38.2477" width="5.77324" height="5.77324" rx="2.88662" transform="rotate(-90 16.0566 38.2477)" fill="#0C242B"/>
<rect x="48.1701" y="38.2477" width="5.77324" height="5.77324" rx="2.88662" transform="rotate(-90 48.1701 38.2477)" fill="#0C242B"/>
<rect x="64.2267" y="38.2477" width="5.77324" height="5.77324" rx="2.88662" transform="rotate(-90 64.2267 38.2477)" fill="#0C242B"/>
<rect y="22.1909" width="5.77324" height="5.77324" rx="2.88662" transform="rotate(-90 0 22.1909)" fill="#0C242B"/>
<rect x="32.1133" y="22.1909" width="5.77324" height="5.77324" rx="2.88662" transform="rotate(-90 32.1133 22.1909)" fill="#0C242B"/>
<rect x="16.0566" y="22.1909" width="5.77324" height="5.77324" rx="2.88662" transform="rotate(-90 16.0566 22.1909)" fill="#0C242B"/>
<rect x="48.1701" y="22.1909" width="5.77324" height="5.77324" rx="2.88662" transform="rotate(-90 48.1701 22.1909)" fill="#0C242B"/>
<rect x="64.2267" y="22.1909" width="5.77324" height="5.77324" rx="2.88662" transform="rotate(-90 64.2267 22.1909)" fill="#0C242B"/>
<rect y="6.13428" width="5.77324" height="5.77324" rx="2.88662" transform="rotate(-90 0 6.13428)" fill="#0C242B"/>
<rect x="32.1133" y="6.13428" width="5.77324" height="5.77324" rx="2.88662" transform="rotate(-90 32.1133 6.13428)" fill="#0C242B"/>
<rect x="16.0566" y="6.13428" width="5.77324" height="5.77324" rx="2.88662" transform="rotate(-90 16.0566 6.13428)" fill="#0C242B"/>
<rect x="48.1701" y="6.13428" width="5.77324" height="5.77324" rx="2.88662" transform="rotate(-90 48.1701 6.13428)" fill="#0C242B"/>
<rect x="64.2267" y="6.13428" width="5.77324" height="5.77324" rx="2.88662" transform="rotate(-90 64.2267 6.13428)" fill="#0C242B"/>
</svg>
