<svg width="60" height="150" viewBox="0 0 60 150" fill="none" xmlns="http://www.w3.org/2000/svg">
<rect x="60.0001" y="150" width="5.77324" height="5.77324" rx="2.88662" transform="rotate(-180 60.0001 150)" fill="#0C242B"/>
<rect x="60.0001" y="117.887" width="5.77324" height="5.77324" rx="2.88662" transform="rotate(-180 60.0001 117.887)" fill="#0C242B"/>
<rect x="60.0001" y="133.943" width="5.77324" height="5.77324" rx="2.88662" transform="rotate(-180 60.0001 133.943)" fill="#0C242B"/>
<rect x="60.0001" y="101.83" width="5.77324" height="5.77324" rx="2.88662" transform="rotate(-180 60.0001 101.83)" fill="#0C242B"/>
<rect x="60.0001" y="85.7733" width="5.77324" height="5.77324" rx="2.88662" transform="rotate(-180 60.0001 85.7733)" fill="#0C242B"/>
<rect x="43.9434" y="150" width="5.77324" height="5.77324" rx="2.88662" transform="rotate(-180 43.9434 150)" fill="#0C242B"/>
<rect x="43.9434" y="117.887" width="5.77324" height="5.77324" rx="2.88662" transform="rotate(-180 43.9434 117.887)" fill="#0C242B"/>
<rect x="43.9434" y="133.943" width="5.77324" height="5.77324" rx="2.88662" transform="rotate(-180 43.9434 133.943)" fill="#0C242B"/>
<rect x="43.9434" y="101.83" width="5.77324" height="5.77324" rx="2.88662" transform="rotate(-180 43.9434 101.83)" fill="#0C242B"/>
<rect x="43.9434" y="85.7732" width="5.77324" height="5.77324" rx="2.88662" transform="rotate(-180 43.9434 85.7732)" fill="#0C242B"/>
<rect x="27.8867" y="150" width="5.77324" height="5.77324" rx="2.88662" transform="rotate(-180 27.8867 150)" fill="#0C242B"/>
<rect x="27.8867" y="117.887" width="5.77324" height="5.77324" rx="2.88662" transform="rotate(-180 27.8867 117.887)" fill="#0C242B"/>
<rect x="27.8867" y="133.943" width="5.77324" height="5.77324" rx="2.88662" transform="rotate(-180 27.8867 133.943)" fill="#0C242B"/>
<rect x="27.8867" y="101.83" width="5.77324" height="5.77324" rx="2.88662" transform="rotate(-180 27.8867 101.83)" fill="#0C242B"/>
<rect x="27.8867" y="85.7732" width="5.77324" height="5.77324" rx="2.88662" transform="rotate(-180 27.8867 85.7732)" fill="#0C242B"/>
<rect x="11.83" y="150" width="5.77324" height="5.77324" rx="2.88662" transform="rotate(-180 11.83 150)" fill="#0C242B"/>
<rect x="11.83" y="117.887" width="5.77324" height="5.77324" rx="2.88662" transform="rotate(-180 11.83 117.887)" fill="#0C242B"/>
<rect x="11.83" y="133.943" width="5.77324" height="5.77324" rx="2.88662" transform="rotate(-180 11.83 133.943)" fill="#0C242B"/>
<rect x="11.83" y="101.83" width="5.77324" height="5.77324" rx="2.88662" transform="rotate(-180 11.83 101.83)" fill="#0C242B"/>
<rect x="11.83" y="85.7732" width="5.77324" height="5.77324" rx="2.88662" transform="rotate(-180 11.83 85.7732)" fill="#0C242B"/>
<rect x="60.0001" y="70" width="5.77324" height="5.77324" rx="2.88662" transform="rotate(-180 60.0001 70)" fill="#0C242B"/>
<rect x="60.0001" y="37.8867" width="5.77324" height="5.77324" rx="2.88662" transform="rotate(-180 60.0001 37.8867)" fill="#0C242B"/>
<rect x="60.0001" y="53.9434" width="5.77324" height="5.77324" rx="2.88662" transform="rotate(-180 60.0001 53.9434)" fill="#0C242B"/>
<rect x="60.0001" y="21.8299" width="5.77324" height="5.77324" rx="2.88662" transform="rotate(-180 60.0001 21.8299)" fill="#0C242B"/>
<rect x="60.0001" y="5.77327" width="5.77324" height="5.77324" rx="2.88662" transform="rotate(-180 60.0001 5.77327)" fill="#0C242B"/>
<rect x="43.9434" y="70" width="5.77324" height="5.77324" rx="2.88662" transform="rotate(-180 43.9434 70)" fill="#0C242B"/>
<rect x="43.9434" y="37.8867" width="5.77324" height="5.77324" rx="2.88662" transform="rotate(-180 43.9434 37.8867)" fill="#0C242B"/>
<rect x="43.9434" y="53.9434" width="5.77324" height="5.77324" rx="2.88662" transform="rotate(-180 43.9434 53.9434)" fill="#0C242B"/>
<rect x="43.9434" y="21.8299" width="5.77324" height="5.77324" rx="2.88662" transform="rotate(-180 43.9434 21.8299)" fill="#0C242B"/>
<rect x="43.9434" y="5.77327" width="5.77324" height="5.77324" rx="2.88662" transform="rotate(-180 43.9434 5.77327)" fill="#0C242B"/>
<rect x="27.8867" y="70" width="5.77324" height="5.77324" rx="2.88662" transform="rotate(-180 27.8867 70)" fill="#0C242B"/>
<rect x="27.8867" y="37.8867" width="5.77324" height="5.77324" rx="2.88662" transform="rotate(-180 27.8867 37.8867)" fill="#0C242B"/>
<rect x="27.8867" y="53.9434" width="5.77324" height="5.77324" rx="2.88662" transform="rotate(-180 27.8867 53.9434)" fill="#0C242B"/>
<rect x="27.8867" y="21.8299" width="5.77324" height="5.77324" rx="2.88662" transform="rotate(-180 27.8867 21.8299)" fill="#0C242B"/>
<rect x="27.8867" y="5.77327" width="5.77324" height="5.77324" rx="2.88662" transform="rotate(-180 27.8867 5.77327)" fill="#0C242B"/>
<rect x="11.83" y="70" width="5.77324" height="5.77324" rx="2.88662" transform="rotate(-180 11.83 70)" fill="#0C242B"/>
<rect x="11.83" y="37.8867" width="5.77324" height="5.77324" rx="2.88662" transform="rotate(-180 11.83 37.8867)" fill="#0C242B"/>
<rect x="11.83" y="53.9433" width="5.77324" height="5.77324" rx="2.88662" transform="rotate(-180 11.83 53.9433)" fill="#0C242B"/>
<rect x="11.83" y="21.8299" width="5.77324" height="5.77324" rx="2.88662" transform="rotate(-180 11.83 21.8299)" fill="#0C242B"/>
<rect x="11.83" y="5.77327" width="5.77324" height="5.77324" rx="2.88662" transform="rotate(-180 11.83 5.77327)" fill="#0C242B"/>
</svg>
