<svg width="34" height="30" viewBox="0 0 34 30" fill="none" xmlns="http://www.w3.org/2000/svg">
<mask id="path-1-inside-1_12_232" fill="white">
<path d="M28.0823 0.901538C31.1608 0.968981 32.7 1.0027 33.2553 2.01511C33.8106 3.02751 33.0118 4.34367 31.4142 6.97597L20.0993 25.6187C18.5016 28.251 17.7028 29.5671 16.5484 29.5418C15.394 29.5165 14.6536 28.1667 13.1727 25.4669L2.68515 6.34657C1.20433 3.64683 0.463917 2.29695 1.06303 1.30984C1.66215 0.322724 3.20138 0.356445 6.27984 0.423889L28.0823 0.901538Z"/>
</mask>
<path d="M6.27984 0.423889L6.34555 -2.57539L6.27984 0.423889ZM1.06303 1.30984L-1.50157 -0.246707L1.06303 1.30984ZM16.5484 29.5418L16.6141 26.5425L16.5484 29.5418ZM28.0823 0.901538L28.148 -2.09774L28.0823 0.901538ZM33.2553 2.01511L35.8856 0.572373L33.2553 2.01511ZM28.8496 5.41943L17.5347 24.0621L22.6639 27.1752L33.9788 8.53252L28.8496 5.41943ZM15.8031 24.0242L5.31546 4.90384L0.0548443 7.78931L10.5424 26.9096L15.8031 24.0242ZM6.21413 3.42317L28.0166 3.90082L28.148 -2.09774L6.34555 -2.57539L6.21413 3.42317ZM5.31546 4.90384C4.93945 4.21833 4.63674 3.66598 4.39053 3.18728C4.1419 2.7039 3.9932 2.37608 3.90777 2.14514C3.81908 1.90537 3.85041 1.90471 3.8544 2.05267C3.86004 2.26146 3.80657 2.57156 3.62763 2.86638L-1.50157 -0.246707C-2.52203 1.43463 -2.12003 3.14416 -1.71954 4.2268C-1.32848 5.28395 -0.636838 6.52827 0.0548443 7.78931L5.31546 4.90384ZM6.34555 -2.57539C4.90762 -2.60689 3.48454 -2.64608 2.36623 -2.50501C1.22097 -2.36054 -0.481104 -1.92804 -1.50157 -0.246707L3.62763 2.86638C3.44869 3.1612 3.19828 3.35178 3.01047 3.44316C2.87737 3.50791 2.8635 3.47981 3.11713 3.44782C3.36143 3.417 3.72088 3.39759 4.26445 3.39502C4.80275 3.39247 5.43246 3.40604 6.21413 3.42317L6.34555 -2.57539ZM17.5347 24.0621C17.129 24.7305 16.802 25.2688 16.5106 25.7214C16.2163 26.1784 16.0067 26.4711 15.8494 26.6606C15.6861 26.8573 15.6699 26.8304 15.796 26.753C15.974 26.6437 16.2693 26.535 16.6141 26.5425L16.4827 32.5411C18.449 32.5842 19.7285 31.3813 20.4658 30.4931C21.1858 29.6259 21.9176 28.4047 22.6639 27.1752L17.5347 24.0621ZM10.5424 26.9096C11.2341 28.1707 11.9117 29.4227 12.593 30.3206C13.2908 31.2402 14.5164 32.498 16.4827 32.5411L16.6141 26.5425C16.9589 26.5501 17.2491 26.6717 17.4222 26.7886C17.5448 26.8715 17.5274 26.8976 17.3729 26.6939C17.2241 26.4978 17.0275 26.1962 16.7535 25.7267C16.4822 25.2618 16.1791 24.7097 15.8031 24.0242L10.5424 26.9096ZM33.9788 8.53252C34.725 7.30298 35.4705 6.09015 35.9075 5.05113C36.355 3.98707 36.8315 2.29679 35.8856 0.572373L30.625 3.45784C30.4592 3.15547 30.4193 2.84332 30.4341 2.63498C30.4446 2.48734 30.4759 2.48937 30.3767 2.72502C30.2813 2.952 30.1184 3.27299 29.8488 3.74502C29.5819 4.21249 29.2553 4.75104 28.8496 5.41943L33.9788 8.53252ZM28.0166 3.90082C28.7983 3.91794 29.428 3.93196 29.9657 3.95808C30.5086 3.98446 30.8669 4.01959 31.1096 4.06108C31.3616 4.10415 31.3465 4.13161 31.2163 4.06109C31.0327 3.96158 30.7909 3.76022 30.625 3.45784L35.8856 0.572373C34.9398 -1.15204 33.2583 -1.65867 32.1205 -1.85315C31.0094 -2.04306 29.586 -2.06624 28.148 -2.09774L28.0166 3.90082Z" fill="#1A3C45" fill-opacity="0.4" mask="url(#path-1-inside-1_12_232)"/>
</svg>
