<svg width="10" height="10" viewBox="0 0 10 10" fill="none" xmlns="http://www.w3.org/2000/svg">
<path d="M5.00041 9.47916C2.52957 9.47916 0.52124 7.47083 0.52124 5C0.52124 2.52916 2.52957 0.520828 5.00041 0.520828C7.47124 0.520828 9.47957 2.52916 9.47957 5C9.47957 7.47083 7.47124 9.47916 5.00041 9.47916ZM5.00041 1.14583C2.87541 1.14583 1.14624 2.87499 1.14624 5C1.14624 7.125 2.87541 8.85416 5.00041 8.85416C7.12541 8.85416 8.85457 7.125 8.85457 5C8.85457 2.87499 7.12541 1.14583 5.00041 1.14583Z" fill="#878787"/>
<path d="M6.54642 6.6375C6.49225 6.6375 6.43809 6.625 6.38809 6.59167L5.09642 5.82083C4.77559 5.62917 4.53809 5.20833 4.53809 4.8375V3.12917C4.53809 2.95833 4.67975 2.81667 4.85059 2.81667C5.02142 2.81667 5.16309 2.95833 5.16309 3.12917V4.8375C5.16309 4.9875 5.28809 5.20833 5.41725 5.28333L6.70892 6.05417C6.85892 6.14167 6.90475 6.33333 6.81725 6.48333C6.75475 6.58333 6.65059 6.6375 6.54642 6.6375Z" fill="#878787"/>
</svg>
