<svg width="22" height="22" viewBox="0 0 22 22" fill="none" xmlns="http://www.w3.org/2000/svg">
<path d="M9.14322 0.970655L8.51089 1.74131L7.44382 1.2473C6.85101 0.970655 5.94203 0.73353 5.44802 0.73353L4.53904 0.69401L4.57856 2.07724C4.61808 3.73712 4.38095 4.50777 2.42467 8.67723C1.63425 10.3569 0.784553 12.3131 0.547428 13.064C0.112699 14.3485 0.0929381 14.4078 0.448626 14.961C0.942637 15.791 1.67377 16.3048 2.74084 16.6012C3.37317 16.779 3.74862 16.7988 3.98574 16.6604C4.22287 16.5024 4.34143 16.5616 4.49952 16.8778C4.61808 17.1149 4.89472 17.3125 5.13185 17.3521C5.46778 17.4113 5.76418 17.1149 6.5546 15.9491C7.08813 15.1389 7.81927 14.2497 8.17496 13.9533C8.88633 13.3407 10.3288 12.57 10.4672 12.7084C10.6648 12.906 9.71627 14.6844 8.58993 16.2652C7.93783 17.1545 7.28574 18.1425 7.10789 18.4784C6.87077 18.9527 6.37676 20.8497 6.37676 21.2449C6.37676 21.3041 9.79531 21.3437 13.9648 21.3437H21.533L21.6713 20.4347C22.1061 17.1347 21.2761 11.8191 19.8731 8.99339C18.1342 5.53532 15.6049 3.30239 13.0163 2.98622C12.0875 2.86766 12.0282 2.82814 11.7714 2.03772C11.4947 1.20778 10.5462 0.199999 10.0324 0.199999C9.87436 0.199999 9.47915 0.555687 9.14322 0.970655ZM13.2534 4.8437C15.3085 5.45627 18.0749 8.73651 19.063 11.7599C19.6558 13.5581 20.0115 15.8107 20.0115 17.767C20.0115 19.1898 19.7151 19.8616 19.1815 19.664C18.7666 19.5059 18.6282 18.9527 18.6282 17.273C18.6282 15.4155 18.154 12.7084 17.5612 11.2658C16.4941 8.65746 14.3205 6.30597 12.3049 5.5946C11.3564 5.25867 11.06 4.88322 11.5738 4.68562C11.969 4.50777 12.1863 4.52753 13.2534 4.8437ZM7.5031 6.46406C7.56238 6.60238 7.24622 7.07663 6.83125 7.51136C6.25819 8.14369 5.92227 8.3413 5.38874 8.36106C4.38095 8.42034 4.34143 7.72872 5.27017 6.79998C5.86299 6.20717 6.08035 6.10837 6.69292 6.16765C7.10789 6.20717 7.46358 6.32573 7.5031 6.46406ZM2.42467 13.5976C2.42467 14.0916 2.0097 14.5856 1.53545 14.6646C1.21928 14.7042 1.16 14.6251 1.19952 14.2299C1.27856 13.4197 2.42467 12.8269 2.42467 13.5976Z" fill="white"/>
</svg>
